<?xml version="1.0" encoding="utf-8"?>
<!-- Generator: Adobe Illustrator 23.0.2, SVG Export Plug-In . SVG Version: 6.00 Build 0)  -->
<svg version="1.1" id="Слой_1" xmlns="http://www.w3.org/2000/svg" xmlns:xlink="http://www.w3.org/1999/xlink" x="0px" y="0px"
	 viewBox="0 0 252 204.9" style="enable-background:new 0 0 252 204.9;" xml:space="preserve">
<style type="text/css">
	.st0{fill:#EF3340;}
	.st1{fill:#B00C2F;}
	.st2{stroke:#000000;stroke-width:0.8;stroke-miterlimit:10;}
</style>
<g>
	<path class="st0" d="M131.6,22.5h0.3v-1.3l2-2v-0.3h-0.3l-2,1.6h-1.7v0.7h1.7V22.5z"/>
	<path class="st1" d="M119,18.9h-0.3v0.3l2,2v1.3h0.7v-1.3h1.4v-0.7h-1.7L119,18.9L119,18.9z M155.6,51.2c-3-3-3-7.6,0-10.6l6.4-6.3
		c4.7-4.6,4.7-12.2,0-17.2l-6.4-5.9c-4.4-4.6-11.9-4.9-16.9-0.7l-3.7,3.6l-4.4,4.6h3.4v3.3l4.1-4.3l3.7-3.6c3-2.6,7.5-2.3,10.2,0.7
		l6.4,5.9c3,3,3,7.6,0,10.6l-6.1,5.9c-4.7,4.6-4.7,12.2,0,17.2l6.1,5.9c3,3,3,7.6,0,10.6l-6.1,5.9c-2.7,3-7.5,3.3-10.5,0.3
		l-11.9-11.5l-3.4,3.3l11.9,11.5c4.7,4.6,12.5,4.3,17.3-0.3l6.4-6.3c4.7-4.6,4.7-12.2,0-17.2L155.6,51.2L155.6,51.2z M135.3,17.6
		c-0.3,0.3-0.7,0.3-1,0c-0.3-0.3-0.3-0.7,0-1c0.3-0.3,0.7-0.3,1,0C135.6,16.9,135.6,17.3,135.3,17.6L135.3,17.6z M118.7,36.7
		l-4.7,4.6c-2.7,3-2.4,7.3,0.7,9.9l11.5,11.2l-3.4,3.3l-11.5-11.5c-4.7-4.3-5.1-11.5-0.7-16.5l8.1-7.6l3.4,3.3l4.4,4.3l-3.4,3.3"/>
	<path class="st0" d="M142.1,38.4l-4.7-4.6l-3.4-3.3l-3.4,3.3l-7.8,7.6l3.4,3.3l7.8-7.6l4.7,4.6c2.7,3,2.4,7.3-0.7,9.9L110.9,78
		c-3,2.6-7.8,2.6-10.5-0.3l-6.1-6.3c-3.1-3-3.1-7.6,0-10.6l6.1-6.3c4.7-4.6,4.7-12.2,0-17.2l-6.1-5.9c-3.1-3-3.1-7.6,0-10.6l6.1-5.9
		c2.7-3,7.1-3.3,10.2-0.7l3.7,3.6l4.4,4.3v-3.3h3.4l-4.4-4.3L114,11c-4.7-4.6-12.5-4.3-16.9,0.7l-6.1,5.9c-4.7,4.6-4.7,12.2,0,17.2
		l6.1,5.9c3,3,3,7.6,0,10.6l-6.1,5.9c-4.7,4.6-4.7,12.2,0,17.2l6.1,6.3c4.7,4.6,12.5,4.9,17.3,0.3l11.9-11.5l3.4-3.3l11.9-11.2
		C146.1,50.3,146.5,43,142.1,38.4z M117.3,16.6c0.3-0.3,0.7-0.3,1,0c0.3,0.3,0.3,0.7,0,1c0,0.3-0.7,0.3-1,0
		C117,17.3,117,16.9,117.3,16.6L117.3,16.6z"/>
</g>
<path class="st2" d="M90.2,112.3V91.8h13.6v20.5h-1.7V93.1H91.9v19.1C91.9,112.3,90.2,112.3,90.2,112.3z M108.9,112.3V91.8h1.7V109
	l10.5-17.2h1.7v20.5h-1.7V94.8l-10.5,17.5H108.9L108.9,112.3z M128.2,112.3V91.8h1.7l6.8,13.9l6.8-13.9h1.7v20.5h-1.7V95.4
	l-6.4,12.9h-1l-6.1-12.9v16.5h-1.7C128.2,111.9,128.2,112.3,128.2,112.3z M149.5,91.8l6.1,12.5l5.4-12.5h1.7l-7.8,17.8
	c-0.7,1.6-2.4,3-4.4,2.6h-1v-1.7h1c1,0,2.4-0.7,2.7-1.6l1.4-3l-6.8-14.2L149.5,91.8L149.5,91.8z"/>
<path id="text" d="M75.8,152.5c0,0-0.2,0.1-0.7,0.1c-0.5,0-0.7-0.1-0.7-0.1v-12.1h-6.1v12.1c0,0-0.2,0.1-0.7,0.1
	c-0.5,0-0.7-0.1-0.7-0.1v-13.3h8.8V152.5z M83.1,142.6c2.2,0,3.6,1.3,3.6,5.1c0,3.8-1.4,5.1-3.6,5.1c-1.4,0-2.3-0.5-2.9-1.4v5.6
	c0,0-0.2,0.1-0.7,0.1c-0.5,0-0.7-0.1-0.7-0.1v-14c0,0,0.2-0.1,0.7-0.1c0.5,0,0.7,0.1,0.7,0.1v1.2C80.8,143.2,81.7,142.6,83.1,142.6z
	 M82.7,143.8c-1.6,0-2.4,1.3-2.4,2.7v2.4c0,1.4,0.8,2.8,2.4,2.8c1.8,0,2.6-1,2.6-3.9C85.3,144.8,84.5,143.8,82.7,143.8z M96.3,142.8
	c0.5,0,0.7,0.1,0.7,0.1v9.6c0,0-0.2,0.1-0.7,0.1c-0.4,0-0.7-0.1-0.7-0.1v-5.3c0-1.5,0.1-2.6,0.1-2.6h-0.1c0.1,0-0.6,1.2-1.2,2.2
	l-3.8,5.7c0,0-0.3,0.1-0.7,0.1c-0.4,0-0.7-0.1-0.7-0.1v-9.6c0,0,0.2-0.1,0.7-0.1c0.4,0,0.7,0.1,0.7,0.1v5.4c0,1.3-0.1,2.5-0.1,2.5h0
	c0,0,0.3-0.7,0.8-1.5l4.2-6.4C95.6,142.9,95.8,142.8,96.3,142.8z M106.7,145.4c0,1.1-0.4,1.8-1.2,2.2c1,0.4,1.6,1.2,1.6,2.4
	c0,1.7-1.1,2.7-3,2.7H100v-9.8h4C105.6,142.8,106.7,143.8,106.7,145.4z M103.7,147.2c1.1,0,1.7-0.6,1.7-1.7c0-1.1-0.6-1.6-1.7-1.6
	h-2.4v3.3H103.7z M103.8,151.6c1.2,0,1.8-0.6,1.8-1.7c0-1.1-0.6-1.7-1.8-1.7h-2.5v3.4H103.8z M113.1,142.6c2.5,0,4,1.4,4,5.1
	c0,3.7-1.5,5.1-4,5.1c-2.5,0-4-1.4-4-5.1C109.1,144,110.6,142.6,113.1,142.6z M113.1,143.7c-1.6,0-2.6,0.9-2.6,4c0,3.1,1,4,2.6,4
	c1.6,0,2.6-0.9,2.6-4C115.7,144.6,114.7,143.7,113.1,143.7z M119.1,152.7c-0.4,0-0.7-0.1-0.7-0.1s-0.1-0.2-0.1-0.5
	c0-0.3,0.1-0.5,0.1-0.5s0.3,0.1,0.6,0c0.7-0.1,1.3-1.2,1.5-4.5l0.3-4.3h5.9v9.7c0,0-0.3,0.1-0.7,0.1c-0.4,0-0.7-0.1-0.7-0.1v-8.6
	H122l-0.3,3.3C121.3,152.1,120.3,152.7,119.1,152.7z M141,142.8c0.4,0,0.7,0.1,0.7,0.1l-2.8,4.5l3.2,5.1c0,0-0.2,0.1-0.8,0.1
	c-0.5,0-0.8-0.1-0.8-0.1l-2.8-4.5H136v4.5c0,0-0.2,0.1-0.7,0.1c-0.4,0-0.7-0.1-0.7-0.1V148h-1.7l-2.8,4.5c0,0-0.3,0.1-0.8,0.1
	c-0.5,0-0.8-0.1-0.8-0.1l3.2-5.1l-2.8-4.5c0,0,0.3-0.1,0.7-0.1c0.5,0,0.7,0.1,0.7,0.1l2.5,4.1h1.7v-4.1c0,0,0.2-0.1,0.7-0.1
	c0.4,0,0.7,0.1,0.7,0.1v4.1h1.7l2.5-4.1C140.3,142.9,140.5,142.8,141,142.8z M144.5,147.7c0,2.7,0.9,3.9,2.9,3.9
	c1.1,0,1.8-0.4,1.8-0.4c0.3,0.2,0.4,0.6,0.4,1c0,0-0.9,0.6-2.5,0.6c-2.6,0-4-1.8-4-5.1c0-3.3,1.4-5.1,4-5.1c1.6,0,2.3,0.4,2.3,0.4
	c0,0.4-0.1,0.8-0.4,1c0,0-0.7-0.3-1.7-0.3C145.4,143.8,144.5,145.1,144.5,147.7z M157.5,142.9c0,0,0.3-0.1,0.7-0.1
	c0.4,0,0.7,0.1,0.7,0.1l-3,4.5l3.4,5.1c0,0-0.3,0.1-0.8,0.1c-0.5,0-0.7-0.1-0.7-0.1l-3-4.5h-1.5v4.5c0,0-0.2,0.1-0.7,0.1
	c-0.4,0-0.7-0.1-0.7-0.1v-9.6c0,0,0.2-0.1,0.7-0.1c0.4,0,0.7,0.1,0.7,0.1v4.1h1.6L157.5,142.9z M168.2,142.8c0.5,0,0.7,0.1,0.7,0.1
	v9.6c0,0-0.2,0.1-0.7,0.1c-0.4,0-0.7-0.1-0.7-0.1v-5.3c0-1.5,0.1-2.6,0.1-2.6h-0.1c0.1,0-0.6,1.2-1.2,2.2l-3.8,5.7
	c0,0-0.3,0.1-0.7,0.1c-0.4,0-0.7-0.1-0.7-0.1v-9.6c0,0,0.2-0.1,0.7-0.1c0.4,0,0.7,0.1,0.7,0.1v5.4c0,1.3-0.1,2.5-0.1,2.5h0
	c0,0,0.3-0.7,0.8-1.5l4.2-6.4C167.5,142.9,167.7,142.8,168.2,142.8z M178.9,142.8c0.5,0,0.7,0.1,0.7,0.1v9.6c0,0-0.2,0.1-0.7,0.1
	c-0.4,0-0.7-0.1-0.7-0.1v-5.3c0-1.5,0.1-2.5,0.1-2.6h-0.1c0,0-0.3,0.7-0.9,1.6l-4.1,6.3c0,0-0.3,0.1-0.7,0.1c-0.4,0-0.7-0.1-0.7-0.1
	v-9.6c0,0,0.2-0.1,0.7-0.1c0.4,0,0.7,0.1,0.7,0.1v5.4c0,1.3-0.1,2.5-0.1,2.5h0c0,0,0.3-0.7,0.8-1.5l4.2-6.4
	C178.2,142.9,178.4,142.8,178.9,142.8z M177.8,139.3c0.3,0.1,0.5,0.4,0.6,0.7c0,0-0.9,1.1-2.6,1.1c-1.7,0-2.6-1.1-2.6-1.1
	c0.1-0.3,0.3-0.6,0.6-0.7c0,0,0.8,0.7,2,0.7C177,140,177.8,139.3,177.8,139.3z M49.7,165.2c0.5,0,0.7,0.1,0.7,0.1v9.6
	c0,0-0.2,0.1-0.7,0.1c-0.4,0-0.7-0.1-0.7-0.1v-5.3c0-1.5,0.1-2.6,0.1-2.6h-0.1c0.1,0-0.6,1.2-1.2,2.2l-3.8,5.7c0,0-0.3,0.1-0.7,0.1
	c-0.4,0-0.7-0.1-0.7-0.1v-9.6c0,0,0.2-0.1,0.7-0.1c0.4,0,0.7,0.1,0.7,0.1v5.4c0,1.3-0.1,2.5-0.1,2.5h0c0,0,0.3-0.7,0.8-1.5l4.2-6.4
	C49,165.3,49.3,165.2,49.7,165.2z M54.4,170.1c0,2.7,0.9,3.9,2.9,3.9c1.1,0,1.8-0.4,1.8-0.4c0.3,0.2,0.4,0.6,0.4,1
	c0,0-0.9,0.6-2.5,0.6c-2.6,0-4-1.8-4-5.1c0-3.3,1.4-5.1,4-5.1c1.6,0,2.3,0.4,2.3,0.4c0,0.4-0.1,0.8-0.4,1c0,0-0.7-0.3-1.7-0.3
	C55.2,166.2,54.4,167.5,54.4,170.1z M62.4,170.1c0,2.7,0.9,3.9,2.9,3.9c1.1,0,1.8-0.4,1.8-0.4c0.3,0.2,0.4,0.6,0.4,1
	c0,0-0.9,0.6-2.5,0.6c-2.6,0-4-1.8-4-5.1c0-3.3,1.4-5.1,4-5.1c1.6,0,2.3,0.4,2.3,0.4c0,0.4-0.1,0.8-0.4,1c0,0-0.7-0.3-1.7-0.3
	C63.3,166.2,62.4,167.5,62.4,170.1z M69.4,175.1c-0.4,0-0.7-0.1-0.7-0.1s-0.1-0.2-0.1-0.5c0-0.3,0.1-0.5,0.1-0.5s0.3,0.1,0.6,0
	c0.7-0.1,1.3-1.2,1.5-4.5l0.3-4.3h5.9v9.7c0,0-0.3,0.1-0.7,0.1c-0.4,0-0.7-0.1-0.7-0.1v-8.6h-3.4l-0.3,3.3
	C71.6,174.5,70.7,175.1,69.4,175.1z M81,170.6c0.1,2.5,1.1,3.5,2.9,3.5c1.4,0,2.3-0.6,2.3-0.6c0.3,0.2,0.4,0.6,0.4,1
	c0,0-1,0.8-3,0.8c-2.7,0-4-1.8-4-5.1c0-3.5,1.6-5,4-5c2.3,0,3.5,1.4,3.5,3.6c0,1.2-0.2,1.9-0.2,1.9H81z M83.6,166.2
	c-1.5,0-2.5,1-2.6,3.4h4.7c0-0.1,0.1-0.5,0.1-1.1C85.8,167.2,85.2,166.2,83.6,166.2z M89.3,174c0.5-0.5,0.9-1.6,1.1-4.3l0.4-4.4h6
	v8.7H98v3.3c-0.1,0-0.3,0.1-0.6,0.1c-0.3,0-0.5-0.1-0.7-0.1V175h-7v2.3c-0.1,0-0.3,0.1-0.6,0.1c-0.3,0-0.5-0.1-0.6-0.1V174H89.3z
	 M91.6,169.7c-0.2,2.2-0.5,3.4-0.9,4.2h4.7v-7.7h-3.6L91.6,169.7z M103.6,165.1c2.5,0,4,1.4,4,5.1c0,3.7-1.5,5.1-4,5.1
	c-2.5,0-4-1.4-4-5.1C99.7,166.5,101.1,165.1,103.6,165.1z M103.6,166.1c-1.6,0-2.6,0.9-2.6,4c0,3.1,1,4,2.6,4c1.6,0,2.6-0.9,2.6-4
	C106.2,167,105.2,166.1,103.6,166.1z M116.9,167.8c0,1.1-0.4,1.8-1.2,2.2c1,0.4,1.6,1.2,1.6,2.4c0,1.7-1.1,2.7-3,2.7h-4.1v-9.8h4
	C115.8,165.2,116.9,166.2,116.9,167.8z M113.9,169.6c1.1,0,1.7-0.6,1.7-1.7c0-1.1-0.6-1.6-1.7-1.6h-2.4v3.3H113.9z M114,174
	c1.2,0,1.8-0.6,1.8-1.7c0-1.1-0.6-1.7-1.8-1.7h-2.5v3.4H114z M123,165.1c2.7,0,3.4,1.3,3.4,3.8v6.1c0,0-0.2,0.1-0.5,0.1
	c-0.3,0-0.5-0.1-0.5-0.1l-0.2-1.4c-0.5,1.1-1.6,1.7-3.1,1.7c-1.7,0-2.9-1-2.9-3c0-1.9,1.2-2.9,3.5-2.9c1,0,2,0.1,2.4,0.1v-1
	c0-1.5-0.7-2.2-2.2-2.2c-1.4,0-2.6,0.5-2.6,0.5c0,0-0.2-0.1-0.3-0.4c-0.1-0.3-0.1-0.5-0.1-0.6C119.8,165.7,121.3,165.1,123,165.1z
	 M122.8,170.3c-1.5,0-2.3,0.6-2.3,1.9c0,1.3,0.7,1.9,1.9,1.9c1.6,0,2.6-1.3,2.6-2.9v-0.7C124.6,170.4,123.7,170.3,122.8,170.3z
	 M135.4,165.2c0,0,0.1,0.2,0.1,0.6c0,0.4-0.1,0.6-0.1,0.6h-2.9v8.5c0,0-0.2,0.1-0.7,0.1c-0.5,0-0.7-0.1-0.7-0.1v-8.5h-2.9
	c0,0-0.1-0.2-0.1-0.6c0-0.4,0.1-0.6,0.1-0.6H135.4z M138.1,170.6c0.1,2.5,1.1,3.5,2.9,3.5c1.4,0,2.3-0.6,2.3-0.6
	c0.3,0.2,0.4,0.6,0.4,1c0,0-1,0.8-3,0.8c-2.7,0-4-1.8-4-5.1c0-3.5,1.6-5,4-5c2.3,0,3.5,1.4,3.5,3.6c0,1.2-0.2,1.9-0.2,1.9H138.1z
	 M140.7,166.2c-1.5,0-2.5,1-2.6,3.4h4.7c0-0.1,0.1-0.5,0.1-1.1C142.9,167.2,142.3,166.2,140.7,166.2z M146.3,175.1
	c-0.4,0-0.7-0.1-0.7-0.1s-0.1-0.2-0.1-0.5c0-0.3,0.1-0.5,0.1-0.5s0.3,0.1,0.6,0c0.7-0.1,1.3-1.2,1.5-4.5l0.3-4.3h5.9v9.7
	c0,0-0.3,0.1-0.7,0.1c-0.4,0-0.7-0.1-0.7-0.1v-8.6h-3.4l-0.3,3.3C148.5,174.5,147.6,175.1,146.3,175.1z M161.1,169.3
	c1.8,0,2.9,1.2,2.9,2.9c0,1.7-1.1,2.8-2.9,2.8h-4.2v-9.7c0.1,0,0.4-0.1,0.7-0.1c0.3,0,0.5,0.1,0.7,0.1v4H161.1z M160.9,174
	c1.2,0,1.8-0.7,1.8-1.8c0-1.1-0.6-1.8-1.8-1.8h-2.6v3.7H160.9z M167.2,170.1c0,2.7,0.9,3.9,2.9,3.9c1.1,0,1.8-0.4,1.8-0.4
	c0.3,0.2,0.4,0.6,0.4,1c0,0-0.9,0.6-2.5,0.6c-2.6,0-4-1.8-4-5.1c0-3.3,1.4-5.1,4-5.1c1.6,0,2.3,0.4,2.3,0.4c0,0.4-0.1,0.8-0.4,1
	c0,0-0.7-0.3-1.7-0.3C168.1,166.2,167.2,167.5,167.2,170.1z M180.2,165.3c0,0,0.3-0.1,0.7-0.1c0.4,0,0.7,0.1,0.7,0.1l-3,4.5l3.4,5.1
	c0,0-0.3,0.1-0.8,0.1c-0.5,0-0.7-0.1-0.7-0.1l-3-4.5h-1.5v4.5c0,0-0.2,0.1-0.7,0.1c-0.4,0-0.7-0.1-0.7-0.1v-9.6c0,0,0.2-0.1,0.7-0.1
	c0.4,0,0.7,0.1,0.7,0.1v4.1h1.6L180.2,165.3z M190.9,165.2c0.5,0,0.7,0.1,0.7,0.1v9.6c0,0-0.2,0.1-0.7,0.1c-0.4,0-0.7-0.1-0.7-0.1
	v-5.3c0-1.5,0.1-2.6,0.1-2.6h-0.1c0.1,0-0.6,1.2-1.2,2.2l-3.8,5.7c0,0-0.3,0.1-0.7,0.1c-0.4,0-0.7-0.1-0.7-0.1v-9.6
	c0,0,0.2-0.1,0.7-0.1c0.4,0,0.7,0.1,0.7,0.1v5.4c0,1.3-0.1,2.5-0.1,2.5h0c0,0,0.3-0.7,0.8-1.5l4.2-6.4
	C190.2,165.3,190.4,165.2,190.9,165.2z M201.6,165.2c0.5,0,0.7,0.1,0.7,0.1v9.6c0,0-0.2,0.1-0.7,0.1c-0.4,0-0.7-0.1-0.7-0.1v-5.3
	c0-1.5,0.1-2.5,0.1-2.6H201c0,0-0.3,0.7-0.9,1.6l-4.1,6.3c0,0-0.3,0.1-0.7,0.1c-0.4,0-0.7-0.1-0.7-0.1v-9.6c0,0,0.2-0.1,0.7-0.1
	c0.4,0,0.7,0.1,0.7,0.1v5.4c0,1.3-0.1,2.5-0.1,2.5h0c0,0,0.3-0.7,0.8-1.5l4.2-6.4C200.9,165.3,201.2,165.2,201.6,165.2z
	 M200.5,161.7c0.3,0.1,0.5,0.4,0.6,0.7c0,0-0.9,1.1-2.6,1.1c-1.7,0-2.6-1.1-2.6-1.1c0.1-0.3,0.3-0.6,0.6-0.7c0,0,0.8,0.7,2,0.7
	C199.7,162.4,200.5,161.7,200.5,161.7z M24.6,187.9c0.4,0,0.7,0.1,0.7,0.1v9.6c0,0-0.2,0.1-0.6,0.1c-0.4,0-0.7-0.1-0.7-0.1V192
	c0-1.3,0.1-2,0.1-2.2h-0.1c-0.1,0.2-0.3,0.7-0.7,1.5l-2.5,4.3c0,0-0.1,0.1-0.4,0.1c-0.2,0-0.4-0.1-0.4-0.1l-2.4-4.2
	c-0.5-0.8-0.7-1.4-0.7-1.5H17c0,0.2,0.1,1,0.1,2.2v5.7c0,0-0.2,0.1-0.6,0.1c-0.4,0-0.6-0.1-0.6-0.1V188c0,0,0.3-0.1,0.7-0.1
	c0.5,0,0.7,0.1,0.7,0.1l2.6,4.6c0.3,0.5,0.4,0.9,0.6,1.2h0.1c0.1-0.3,0.3-0.7,0.6-1.2l2.7-4.6C23.9,188,24.2,187.9,24.6,187.9z
	 M29.3,193.3c0.1,2.5,1.1,3.5,2.9,3.5c1.4,0,2.3-0.6,2.3-0.6c0.3,0.2,0.4,0.6,0.4,1c0,0-1,0.8-3,0.8c-2.7,0-4-1.8-4-5.1
	c0-3.5,1.6-5,4-5c2.2,0,3.5,1.4,3.5,3.6c0,1.2-0.2,1.9-0.2,1.9H29.3z M31.9,188.9c-1.5,0-2.5,1-2.6,3.4H34c0-0.1,0.1-0.5,0.1-1.1
	C34.1,189.9,33.5,188.9,31.9,188.9z M37.6,196.7c0.5-0.5,0.9-1.6,1.1-4.3l0.4-4.4h6v8.7h1.2v3.3c-0.1,0-0.3,0.1-0.6,0.1
	c-0.3,0-0.5-0.1-0.7-0.1v-2.3h-7v2.3c-0.1,0-0.3,0.1-0.6,0.1c-0.3,0-0.5-0.1-0.6-0.1v-3.3H37.6z M40,192.4c-0.2,2.2-0.5,3.4-0.9,4.2
	h4.7V189h-3.6L40,192.4z M55.6,187.9c0.5,0,0.7,0.1,0.7,0.1v9.6c0,0-0.2,0.1-0.7,0.1c-0.4,0-0.7-0.1-0.7-0.1v-5.3
	c0-1.5,0.1-2.6,0.1-2.6h-0.1c0.1,0-0.6,1.2-1.2,2.2l-3.8,5.7c0,0-0.3,0.1-0.7,0.1c-0.4,0-0.7-0.1-0.7-0.1V188c0,0,0.2-0.1,0.7-0.1
	c0.4,0,0.7,0.1,0.7,0.1v5.4c0,1.3-0.1,2.5-0.1,2.5h0c0,0,0.3-0.7,0.8-1.5l4.2-6.4C54.9,188,55.1,187.9,55.6,187.9z M65.8,187.9
	c0.4,0,0.7,0.1,0.7,0.1v8.6h1.2v3.4c-0.1,0-0.3,0.1-0.6,0.1c-0.3,0-0.5-0.1-0.6-0.1v-2.3h-7.2V188c0,0,0.2-0.1,0.7-0.1
	c0.5,0,0.7,0.1,0.7,0.1v8.6h4.6V188C65.2,188,65.4,187.9,65.8,187.9z M77,187.9c0.5,0,0.7,0.1,0.7,0.1v9.6c0,0-0.2,0.1-0.7,0.1
	c-0.4,0-0.7-0.1-0.7-0.1v-5.3c0-1.5,0.1-2.6,0.1-2.6h-0.1c0.1,0-0.6,1.2-1.2,2.2l-3.8,5.7c0,0-0.3,0.1-0.7,0.1
	c-0.4,0-0.7-0.1-0.7-0.1V188c0,0,0.2-0.1,0.7-0.1c0.4,0,0.7,0.1,0.7,0.1v5.4c0,1.3-0.1,2.5-0.1,2.5h0c0,0,0.3-0.7,0.8-1.5l4.2-6.4
	C76.3,188,76.5,187.9,77,187.9z M82,197.6c0,0-0.2,0.1-0.7,0.1c-0.4,0-0.7-0.1-0.7-0.1V188c0,0,0.2-0.1,0.7-0.1
	c0.4,0,0.7,0.1,0.7,0.1v4.1h4.8V188c0,0,0.2-0.1,0.7-0.1c0.4,0,0.7,0.1,0.7,0.1v9.6c0,0-0.2,0.1-0.7,0.1c-0.4,0-0.7-0.1-0.7-0.1
	v-4.4H82V197.6z M92,192.8c0,2.7,0.9,3.9,2.9,3.9c1.1,0,1.8-0.4,1.8-0.4c0.3,0.2,0.4,0.6,0.4,1c0,0-0.9,0.6-2.5,0.6
	c-2.6,0-4-1.8-4-5.1c0-3.3,1.4-5.1,4-5.1c1.6,0,2.3,0.4,2.3,0.4c0,0.4-0.1,0.8-0.4,1c0,0-0.7-0.3-1.7-0.3
	C92.9,188.9,92,190.2,92,192.8z M105,188c0,0,0.3-0.1,0.7-0.1c0.4,0,0.7,0.1,0.7,0.1l-3,4.5l3.4,5.1c0,0-0.3,0.1-0.8,0.1
	c-0.5,0-0.7-0.1-0.7-0.1l-3-4.5h-1.5v4.5c0,0-0.2,0.1-0.7,0.1c-0.4,0-0.7-0.1-0.7-0.1V188c0,0,0.2-0.1,0.7-0.1
	c0.4,0,0.7,0.1,0.7,0.1v4.1h1.6L105,188z M115.7,187.9c0.5,0,0.7,0.1,0.7,0.1v9.6c0,0-0.2,0.1-0.7,0.1c-0.4,0-0.7-0.1-0.7-0.1v-5.3
	c0-1.5,0.1-2.6,0.1-2.6H115c0.1,0-0.6,1.2-1.2,2.2l-3.8,5.7c0,0-0.3,0.1-0.7,0.1c-0.4,0-0.7-0.1-0.7-0.1V188c0,0,0.2-0.1,0.7-0.1
	c0.4,0,0.7,0.1,0.7,0.1v5.4c0,1.3-0.1,2.5-0.1,2.5h0c0,0,0.3-0.7,0.8-1.5l4.2-6.4C115,188,115.2,187.9,115.7,187.9z M126.4,187.9
	c0.5,0,0.7,0.1,0.7,0.1v9.6c0,0-0.2,0.1-0.7,0.1c-0.4,0-0.7-0.1-0.7-0.1v-5.3c0-1.5,0.1-2.5,0.1-2.6h-0.1c0,0-0.3,0.7-0.9,1.6
	l-4.1,6.3c0,0-0.3,0.1-0.7,0.1c-0.4,0-0.7-0.1-0.7-0.1V188c0,0,0.2-0.1,0.7-0.1c0.4,0,0.7,0.1,0.7,0.1v5.4c0,1.3-0.1,2.5-0.1,2.5h0
	c0,0,0.3-0.7,0.8-1.5l4.2-6.4C125.7,188,125.9,187.9,126.4,187.9z M125.3,184.4c0.3,0.1,0.5,0.4,0.6,0.7c0,0-0.9,1.1-2.6,1.1
	c-1.7,0-2.6-1.1-2.6-1.1c0.1-0.3,0.3-0.6,0.6-0.7c0,0,0.8,0.7,2,0.7C124.5,185.1,125.3,184.4,125.3,184.4z M138.3,199.5
	c-0.6,1.8-1.2,2.8-2.9,2.8c-0.6,0-0.9-0.1-0.9-0.1c0,0-0.1-0.3-0.1-0.5c0-0.3,0.1-0.5,0.1-0.6c0,0,0.4,0.1,0.8,0.1
	c0.8,0,1.2-0.4,1.8-2l0.6-1.6c-0.1,0-0.3,0-0.4-0.1l-3.7-9.6c0,0,0.2-0.1,0.7-0.1c0.5,0,0.7,0.1,0.7,0.1l2.5,6.4
	c0.4,1.2,0.7,2,0.7,2h0.1c0,0,0.2-0.8,0.6-2l2.2-6.4c0,0,0.2-0.1,0.7-0.1c0.4,0,0.7,0.1,0.7,0.1L138.3,199.5z M145.6,197.6
	c0,0-0.2,0.1-0.7,0.1c-0.4,0-0.7-0.1-0.7-0.1V188c0,0,0.2-0.1,0.7-0.1c0.4,0,0.7,0.1,0.7,0.1v4.1h4.8V188c0,0,0.2-0.1,0.7-0.1
	c0.4,0,0.7,0.1,0.7,0.1v9.6c0,0-0.2,0.1-0.7,0.1c-0.4,0-0.7-0.1-0.7-0.1v-4.4h-4.8V197.6z M161.7,187.9c0.5,0,0.7,0.1,0.7,0.1v9.6
	c0,0-0.2,0.1-0.7,0.1c-0.4,0-0.7-0.1-0.7-0.1v-5.3c0-1.5,0.1-2.6,0.1-2.6H161c0.1,0-0.6,1.2-1.2,2.2l-3.8,5.7c0,0-0.3,0.1-0.7,0.1
	c-0.4,0-0.7-0.1-0.7-0.1V188c0,0,0.2-0.1,0.7-0.1c0.4,0,0.7,0.1,0.7,0.1v5.4c0,1.3-0.1,2.5-0.1,2.5h0c0,0,0.3-0.7,0.8-1.5l4.2-6.4
	C161,188,161.2,187.9,161.7,187.9z M172.1,190.5c0,1.1-0.4,1.8-1.2,2.2c1,0.4,1.6,1.2,1.6,2.4c0,1.7-1.1,2.7-3,2.7h-4.1v-9.8h4
	C171,187.9,172.1,188.9,172.1,190.5z M169.1,192.3c1.1,0,1.7-0.6,1.7-1.7c0-1.1-0.6-1.6-1.7-1.6h-2.4v3.3H169.1z M169.2,196.7
	c1.2,0,1.8-0.6,1.8-1.7c0-1.1-0.6-1.7-1.8-1.7h-2.5v3.4H169.2z M175.9,193.3c0.1,2.5,1.1,3.5,2.9,3.5c1.4,0,2.3-0.6,2.3-0.6
	c0.3,0.2,0.4,0.6,0.4,1c0,0-1,0.8-3,0.8c-2.7,0-4-1.8-4-5.1c0-3.5,1.6-5,4-5c2.3,0,3.5,1.4,3.5,3.6c0,1.2-0.2,1.9-0.2,1.9H175.9z
	 M178.5,188.9c-1.5,0-2.5,1-2.6,3.4h4.7c0-0.1,0.1-0.5,0.1-1.1C180.7,189.9,180.1,188.9,178.5,188.9z M188.6,187.8
	c2.2,0,3.6,1.3,3.6,5.1c0,3.8-1.4,5.1-3.6,5.1c-1.4,0-2.3-0.5-2.9-1.4v5.6c0,0-0.2,0.1-0.7,0.1c-0.5,0-0.7-0.1-0.7-0.1v-14
	c0,0,0.2-0.1,0.7-0.1c0.5,0,0.7,0.1,0.7,0.1v1.2C186.3,188.3,187.2,187.8,188.6,187.8z M188.2,188.9c-1.6,0-2.4,1.3-2.4,2.7v2.4
	c0,1.4,0.8,2.8,2.4,2.8c1.8,0,2.6-1,2.6-3.9C190.8,189.9,190,188.9,188.2,188.9z M195.7,192.8c0,2.7,0.9,3.9,2.9,3.9
	c1.1,0,1.8-0.4,1.8-0.4c0.3,0.2,0.4,0.6,0.4,1c0,0-0.9,0.6-2.5,0.6c-2.6,0-4-1.8-4-5.1c0-3.3,1.4-5.1,4-5.1c1.6,0,2.3,0.4,2.3,0.4
	c0,0.4-0.1,0.8-0.4,1c0,0-0.7-0.3-1.7-0.3C196.6,188.9,195.7,190.2,195.7,192.8z M210.1,187.9c0.5,0,0.7,0.1,0.7,0.1v9.6
	c0,0-0.2,0.1-0.7,0.1c-0.4,0-0.7-0.1-0.7-0.1v-5.3c0-1.5,0.1-2.6,0.1-2.6h-0.1c0.1,0-0.6,1.2-1.2,2.2l-3.8,5.7c0,0-0.3,0.1-0.7,0.1
	c-0.4,0-0.7-0.1-0.7-0.1V188c0,0,0.2-0.1,0.7-0.1c0.4,0,0.7,0.1,0.7,0.1v5.4c0,1.3-0.1,2.5-0.1,2.5h0c0,0,0.3-0.7,0.8-1.5l4.2-6.4
	C209.4,188,209.6,187.9,210.1,187.9z M220,187.9c0,0,0.1,0.2,0.1,0.6c0,0.4-0.1,0.6-0.1,0.6h-2.9v8.5c0,0-0.2,0.1-0.7,0.1
	c-0.5,0-0.7-0.1-0.7-0.1v-8.5h-2.9c0,0-0.1-0.2-0.1-0.6c0-0.4,0.1-0.6,0.1-0.6H220z M222.7,193.3c0.1,2.5,1.1,3.5,2.9,3.5
	c1.4,0,2.3-0.6,2.3-0.6c0.3,0.2,0.4,0.6,0.4,1c0,0-1,0.8-3,0.8c-2.7,0-4-1.8-4-5.1c0-3.5,1.6-5,4-5c2.3,0,3.5,1.4,3.5,3.6
	c0,1.2-0.2,1.9-0.2,1.9H222.7z M225.3,188.9c-1.5,0-2.5,1-2.6,3.4h4.7c0-0.1,0.1-0.5,0.1-1.1C227.5,189.9,226.9,188.9,225.3,188.9z
	 M237.4,187.9c0,0,0.1,0.2,0.1,0.6c0,0.4-0.1,0.6-0.1,0.6h-2.9v8.5c0,0-0.2,0.1-0.7,0.1c-0.5,0-0.7-0.1-0.7-0.1v-8.5h-2.9
	c0,0-0.1-0.2-0.1-0.6c0-0.4,0.1-0.6,0.1-0.6H237.4z"/>
</svg>
